<?xml version="1.0" encoding="utf-8"?>
<!-- Generator: Adobe Illustrator 19.0.0, SVG Export Plug-In . SVG Version: 6.00 Build 0)  -->
<svg version="1.1" id="Layer_1" xmlns="http://www.w3.org/2000/svg" xmlns:xlink="http://www.w3.org/1999/xlink" x="0px" y="0px"
	 viewBox="0 0 1370 800" style="enable-background:new 0 0 1370 800;" xml:space="preserve">
<style type="text/css">
	.st0{fill:#FFD100;}
	.st1{clip-path:url(#SVGID_2_);fill:none;stroke:#000000;}
	.st2{clip-path:url(#SVGID_2_);fill:#1F1A17;}
</style>
<rect class="st0" width="1370" height="800"/>
<g>
	<defs>
		<rect id="SVGID_1_" width="1370" height="800"/>
	</defs>
	<clipPath id="SVGID_2_">
		<use xlink:href="#SVGID_1_"  style="overflow:visible;"/>
	</clipPath>
	<rect x="-40.5" y="-37.5" class="st1" width="1445" height="875"/>
	<path class="st2" d="M795.9,563.1l-5.5,11.8c3.7-1.6,7.2-6.3,10.6-10.7L795.9,563.1L795.9,563.1z M802.4,549.2l-5,10.8l6.5,0.7
		c0.4-0.5,0.8-0.9,1.2-1.4L802.4,549.2L802.4,549.2z M923-345.3l-2.3,4.8c-5.1-6.5-11.1-12.5-17.8-17.9l9.8-7.2L923-345.3L923-345.3
		z M933.7-381l5.2,2l-12,25.2l-8.6-15.9L933.7-381z M906.7-391.1l22.5,8.5l-13.3,8.5L906.7-391.1L906.7-391.1z M897.3-394.7l0.6,0.2
		l12.3,24.1l-12.5,8c-0.6-0.5-1.3-0.9-2-1.4C894.5-375.3,895-385.6,897.3-394.7L897.3-394.7z M960.1-330.5c0,2.8,0.1,5.5,0.2,8.3
		l-9,6.8l-4.7-7.2L960.1-330.5L960.1-330.5z M961.4-371.8c-1,10.9-1.4,22.2-1.4,33.8l-17,10.1l-5.2-8l18.8-38.2L961.4-371.8
		L961.4-371.8z M854.4-412l-9.3-4.2l-11.2,2.8l7,17.9l13.5-9.6L854.4-412L854.4-412z M854.4-398.8l-9.5,6.2c3,2,6.2,3.7,9.6,5.3
		L854.4-398.8z M876.8-379.3l0.1-22.6l-10.5-4.7l-3.5,2.3l-0.1,20.6C867.3-382,871.9-380.5,876.8-379.3L876.8-379.3z M897.9-404.9
		c-1.6-3.4-1-5.7,4.4-5.2c13.2,4.5,23.3,9.5,26.6,15.5L897.9-404.9L897.9-404.9z M974.1-356.5l5.5,6.4l-4.6,2.2l-2.4-2.8
		L974.1-356.5z M833.7-353.1l-1.6,26.9l12,2.7l1.2,0.6L833.7-353.1z M813.7-406.1l4.3,8l-16.8-1.8L813.7-406.1z M803.1-358.7
		l0.4-10.2c3.7-2.1,7.3-2,10.6,0.3l-0.6,23.1C808.3-349.4,804.8-353.8,803.1-358.7z M781.4-354.9l0.4-0.9c3.2,3.7,6.4,7.5,9.6,11.2
		c-3.3,0.3-5.9-0.4-8-2.1L781.4-354.9z M760-363.5l4.3,8.9l-6.9-0.6L760-363.5L760-363.5z M898.1-315.8l7.7,14.4l-9.6-3L898.1-315.8
		L898.1-315.8z M876.7-337.7l-1.8,26.9l-8.9-9.3L876.7-337.7L876.7-337.7z M1009.4-273.2v12.6l-16.8-7.3L1009.4-273.2z M994.7-329.6
		l8,28.6c-9.2,8-19.1,14.9-29.8,20.6v-30.3l22-19.5 M966.5-254.7l26.6,10.8c-3.2,7.7-8.7,12.1-16.2,13.2
		C971.5-239.6,968.2-247.5,966.5-254.7 M1025.7-337.4l-0.5-14.8l-5.5,3.4C1021.8-345,1023.8-341.3,1025.7-337.4z M972.3,259.3
		l-12.5-3.1v21.4L972.3,259.3z M886.6,340.9v44.2c10.9-16.1,21.8-32.2,32.7-48.3C910,332,898.9,334,886.6,340.9z M920.9,280.2
		l-34.3-37.5v-4.5l46.9,11.6v11.6L920.9,280.2L920.9,280.2z M933.5,294l-8.4-9.2l8.4-11.1V294z M860.3,257.5l-42,64.7V221.4l42,10.4
		V257.5L860.3,257.5z M826.2,323.5l34.1-53.7v42.2L826.2,323.5z M1162.7,55.5l-12.9-3.7l12.9,25.7V55.5z M1065.8,1.5l16.2,4.7
		l-16.2-27V1.5z M888.8-42.8l35.7-17.5l-1.3-3.9l-34.3,16.3L888.8-42.8L888.8-42.8z M818.3,11.4l14.1,1.6L856.8,37L818.3,26
		L818.3,11.4L818.3,11.4z M818.3-30.8c12,0.1,24.2-1,36.8-3l2.2,6.4l-39,19.1V-30.8L818.3-30.8z M860.3,8.6l-28.4-8.3l28.4-12.9V8.6
		z M860.3,32L831.7,5.7l-0.1-0.5l28.7,9.5V32z M123.9,675l-2.3-15.5l-43.2,57.2L123.9,675z M67.9,738.3l63.1-15.5l3.8,25.8
		c-20.2-1.3-39.9-2.3-58.5-2.9L67.9,738.3z M129.7,714.4l-55.6,14.7l50.9-46.6L129.7,714.4L129.7,714.4z M245.5,696.2l-53,49.6
		l31.2-45.9l23-5.7L245.5,696.2L245.5,696.2z M194.7,752.9l33-28.9l-19.2,30C203.9,753.7,199.3,753.3,194.7,752.9z M183,709.9
		l13.2,12.3l-19.9,29.3c-11.8-0.9-23.5-1.7-35.1-2.5l-4.2-27.7L183,709.9L183,709.9z M139.4,669.5l35.5,33l-39.2,10.4l-5.3-35.2
		L139.4,669.5L139.4,669.5z M200,716.7l-9.2-8.6l18.1-4.5L200,716.7z M844.3,574.2v-0.7l-24-5.2l-2,3.6v8.7L844.3,574.2z
		 M786.1,541.9L737.2,554l39.6,3.7C779.9,552.5,783,547.2,786.1,541.9z M860.3,508l-7.1,1.7l-4.3,7.7l11.4-2.9V508L860.3,508z
		 M856.5,503.9l3.9-1V497L856.5,503.9z M733,577l-0.5-20.1l42.7,3.7c-4.2,7.1-8.5,14.2-12.8,21.2L733,577L733,577z M733.6,601.5
		l-0.5-19.9l26.7,4.3c-2.3,3.6-4.5,7.3-6.8,10.9L733.6,601.5L733.6,601.5z M725.9,539.4l0.4,12.9l-1.8,0.5l-40.3-3.8L725.9,539.4
		L725.9,539.4z M680.5,573.1l1,41.2l46.4-11.4l-0.7-22.3L680.5,573.1z M680.4,568.1l0,0.4l46.7,7.6l-0.6-19.3L680.4,568.1z
		 M680,552.3l0.3,11.8l34.5-8.8L680,552.3L680,552.3z M777.4,539.4l3.1-5.3l4.4-1.8c0.7-2.1,1.4-4.4,1.9-6.9L732,538.1l0.3,12.8
		L777.4,539.4z M804.1,460.1l-8.3,13.6l-0.3,45.2l4.9-1.1c1.2-2,2.4-4,3.6-6V460.1z M818.3,428.3l18.5-26.1l-12.2-12.3l-6.2,1.8
		V428.3L818.3,428.3z M789.4,469.2l14.8-20.9v-68.9l-47.8-6.7l-1.2-25.5l49-16.4V-31.4c-4.7-0.4-9.3-1-13.9-1.7L344.1,766.3
		c55.8,3.6,106.7,1.1,141-23.4c19.9-14.2,38-34.9,80.6-39.4c45.6-4.8,109.7,1.1,180.5,8.7v-60.3l-69.2-14v-19.8l-2.2-45.9l-4.5-0.7
		l-0.1-4.6l4.5,0.7l-0.8-16l-2.8,0.6v-4.3l116.7-27.2C789.8,506.5,789.5,487.7,789.4,469.2L789.4,469.2z M844.3,562.4l-18.3-4.3
		l-2.7,4.9l21,2.4V562.4z M849.1,557.8l11.2,2.4v-29.5l-11.5,2.7L849.1,557.8z M828.7,553.4l15.6,3.4v-22.2l-5.8,1.4L828.7,553.4
		L828.7,553.4z M1088.7,521.9l0.5,0.1l-0.2,0.3L1088.7,521.9z M1101.6,539.4l-9.4-12.8l2.4-3.4l11.1,2.4v14.8L1101.6,539.4
		L1101.6,539.4z M1147,538.7l0.1,10.6l-23.7-5.2v-16l18.6,3.9L1147,538.7z M1105.7,520.6l-8.1-1.6l8.1-11.4V520.6z M1123.4,507.3
		l15.2,20.3l-15.2-3.3V507.3z M1162.7,551.6l-12-16.5l0-1.2l12,2.5V551.6z M1151,550.2l-0.1-6.4l5.7,7.6L1151,550.2z M1138.7,601.5
		l-5.3,0.9l6.9,1.4L1138.7,601.5z M1147.8,599.9l-0.9,0.2l0.9,1.2L1147.8,599.9z M1162.7,597.3l-10.7,1.9l0.1,7l10.5,2.1V597.3z
		 M1105.7,593.2l-9.3,1.9l9.3,1.8V593.2z M1129.4,588.5l-6,1.2v9.8l12.2-2.3L1129.4,588.5z M1147.6,584.8l-10.6,2.1l6.6,8.8l4.1-0.8
		L1147.6,584.8z M1162.7,581.8l-11,2.2l0.2,10.2l10.8-2V581.8z M1151.6,579.4l11.1-2.4v-1.3l-3.9-7.3l-7.4-1.4L1151.6,579.4z
		 M1123.4,585.4l3.3-0.7l-3.3-4.6V585.4z M1263,560.1l0.1,11.6l-27-5.7L1263,560.1L1263,560.1z M1206.6,588.8l0.6,28.1l-26.8-5.3
		v-17.6L1206.6,588.8L1206.6,588.8z M1206.2,572.4l0.3,11.7l-26.1,4.8V578L1206.2,572.4L1206.2,572.4z M1206,564.2l0.1,3.1
		l-25.7,5.8v-13.7L1206,564.2z M1205.6,545.3l0.3,14.2l-25.5-5.4v-14.1L1205.6,545.3z M1212.9,561.1l-0.1-14.2l43.9,9.2l-32.8,7.4
		L1212.9,561.1L1212.9,561.1z M1213,583l0-12l13.4-2.9l33.4,6.3L1213,583z M1213.1,618.1l-0.1-30.5l50.1-10l0.2,50.4L1213.1,618.1
		L1213.1,618.1z M1077.1,534l-0.3-14.6l2,0.4l6.8,7.8l-4.7,7.2L1077.1,534L1077.1,534z M1103.1,557.8l-24.7,6.9l-0.2-11.7
		L1103.1,557.8z M1123.4,566.4l11-2.6l13,2.5l0.2,14l-13.4,2.9l-10.7-14.2V566.4z M1078.6,577l27-6.4v18.6l-18.8,4l-8-1.6
		L1078.6,577z M1065.8,580.1l7.2-1.7l-0.2,12.1l-7-1.4V580.1z M1071.3,518.2l-0.2,14.5l-5.3-1.2V517L1071.3,518.2z M1071.4,511.4
		l0,2.3l-5.6-1.1v-7.6L1071.4,511.4z M656.8-606L629-707.2l-13.7,140.9L656.8-606L656.8-606z M675-539.7l-15.1-55l-46.1,44.2
		L612-532L675-539.7L675-539.7z M643.8-504.4l34.1-24.7l-1.9-7.1l-64.3,7.8l-1.1,11.3L643.8-504.4L643.8-504.4z M612.4-481.6
		l21.5-15.6l-24.4-9.3l-1.7,17.8L612.4-481.6z M606.7-477.5l2.7-2l-2.2-3.4L606.7-477.5z M689.5-487l-9.8-35.7l-28.8,20.9L689.5-487
		z M634.2-447.6l83.7,63.8l-25-90.9l-51.9-19.8l-25.1,18.2L634.2-447.6L634.2-447.6z M606-469.1l19.8,15.1l-12.9-20.1L606-469.1
		L606-469.1z M585.3-462l9.2-6.7l-9.3-7L585.3-462L585.3-462z M522.2-416.3l52.9-38.3l-0.3-28.7l-98.8-74l-7.7-2.9L522.2-416.3
		L522.2-416.3z M575.2-446.8L524.6-410l52.2,139.4L575.2-446.8L575.2-446.8z M586.5-327.5l12.8-136.7l-13.9,10.1L586.5-327.5
		L586.5-327.5z M689.3-355.1L636.7-437l-31.6-23.7l-18.2,187.4l0,5.2l63.8-42.3C661-327.5,674.1-342.6,689.3-355.1z M719.5-375
		L645-430.8l47.1,73.4C700.7-364,709.8-370,719.5-375L719.5-375z M703.2-470.8l24.3,88.6c1.7-1.9,3.4-3.7,5.2-5.5l-0.4-72.1
		L703.2-470.8L703.2-470.8z M684.9-537.3l14.9,54.2l32.4,12.3l-0.4-72.2L684.9-537.3L684.9-537.3z M667.2-601.8l16.7,61l47.8-5.9
		l-0.7-116.5L667.2-601.8L667.2-601.8z M635.2-718.3l28.9,105.2l65.2-62.6L635.2-718.3L635.2-718.3z M608.1-559.3l14.3-153.4
		L467.9-571.4l109.5,41.7L608.1-559.3L608.1-559.3z M605.5-531.2l1.2-12.5l-14.8,14.2L605.5-531.2z M604.4-519.4l0.8-8.1l-16.7,2
		L604.4-519.4L604.4-519.4z M592.2-513.1l10.2,15.8l1.1-11.5L592.2-513.1z M585.1-485.1l15,11.5l1.7-17.8l-15.4-23.9l-1.6-0.6
		L585.1-485.1z M504.6-546.5l70.2,53.5l-0.2-26.9L504.6-546.5L504.6-546.5z M789.6-437.9l-0.4,0.1l7.1,7.7
		c-19.7,7.8-37.8,19-53.5,32.8l-0.3-58.6L789.6-437.9z M767.8-547.4l24.9,99.7l-50.2-19.1l-0.4-77.4L767.8-547.4L767.8-547.4z
		 M741.4-653.2L766.9-551L742-548L741.4-653.2L741.4-653.2z M1081.7-457.5l0.2,57.5l-8,5l-35.9-59.1L1081.7-457.5L1081.7-457.5z
		 M978.8-539.5l24.4,81.9l24.3-1.8L978.8-539.5L978.8-539.5z M1107.1-384.4l0.5,44.8l-17.4-28.7l0-1.9L1107.1-384.4L1107.1-384.4z
		 M1122-304.1l-7.4,16.9l-0.4-29.8L1122-304.1L1122-304.1z M1186.6-451.4L1125-310.9l-10.9-18l-0.7-60.7L1186.6-451.4L1186.6-451.4z
		 M1090.3-301.2l18,17.5l-0.5-43.8l-17.6-28.9L1090.3-301.2L1090.3-301.2z M1052.4-338.2l29.9,29.2l-0.2-54.3L1052.4-338.2z
		 M1119-273.3l16.6-8.5l37,60.7L1119-273.3L1119-273.3z M1090.3-258.6l15.2-7.8l-15.1,34.5L1090.3-258.6L1090.3-258.6z
		 M1105.3-274.5l-15,7.7l0-22.1L1105.3-274.5z M1131.8-288.1l-12.6,6.4l7-15.7L1131.8-288.1z M1193-201.1l-3.1-3l-48.9-80.4l52-26.6
		V-201.1z M1115.4-218.2l-0.6-47.1l73.7,70.6l1.8,3L1115.4-218.2L1115.4-218.2z M1094.4-225.7l14.1-31.9l0.4,37L1094.4-225.7
		L1094.4-225.7z M1054-240l28.5-14.6l0.1,24.8L1054-240z M1036.3-324.6l8.9-7.5l37.2,35.6l0.1,33.6l-38.1,19.5l-2-0.7
		c0.6-5.8,1-11.7,1-17.6c0-18-2.9-35.7-8.4-52.5l1.7-0.1L1036.3-324.6z M1035.8-341.1l7,6.7l-6.6,5.6L1035.8-341.1z M1074.1-382.9
		l8,13.2l0,2.3l-32.1,27l-14.7-14.3l-0.1-3.7L1074.1-382.9L1074.1-382.9z M1030.1-367.4l-25.1-84.2l26.1-2l37.6,61.9L1030.1-367.4z
		 M969.4-448.8l28.5-2.2l25.3,88l-8.8,5.5c-11.9-18.3-27-34.7-44.5-48L969.4-448.8L969.4-448.8z M893.4-443l65.7-5.1l0.4,35.3
		c-5.7-3.7-11.5-7.1-17.6-10.2C926.6-431.7,910.5-438.6,893.4-443L893.4-443z M840.8-447.9l14-12.8l-0.1,12.5
		C850.1-448.3,845.5-448.2,840.8-447.9z M849.2-475.8l5.2,9.3l-20.2,19.1c-8.7,0.8-17.6,2.3-26.9,4.5L849.2-475.8z M806.4-552.1
		l37.7,67.2l-45.8,36.2l-25.8-99.2L806.4-552.1L806.4-552.1z M741.3-668.2l63.1,112.5l-32.9,4l-30.2-116.2L741.3-668.2L741.3-668.2z
		 M855.2-558l-0.3,64.6l-5,3.9L813.8-553L855.2-558z M855.5-618.5l-0.3,56.6l-43.4,5.3l-62.6-110.1L855.5-618.5L855.5-618.5z
		 M862-562.8l-0.3-53l92,41.7L862-562.8L862-562.8z M862.4-499.3l-0.3-59.5l89.6-10.9L862.4-499.3L862.4-499.3z M939.7-547.2
		l-77.2,73.1l-0.1-12.1L939.7-547.2L939.7-547.2z M959.1-454.3l-85.6,6.4l-11-19.3l0-0.5l95.5-87.3L959.1-454.3L959.1-454.3z
		 M968.3-553.8l27.8,96.7l-26.8,2L968.3-553.8L968.3-553.8z M1081.5-516.2l0.2,52.8l-47.2,3.5l-65-107L1081.5-516.2L1081.5-516.2z
		 M1181.6-470.9l-91.5,6.8l0-48.3L1181.6-470.9L1181.6-470.9z M1090.2-405.2l-0.1-52.9l95.9-7.4L1090.2-405.2L1090.2-405.2z
		 M1106.9-403.6l0.2,15.1l-16.9,14.2l0-18.8L1106.9-403.6z M1178.3-448.5l-65,54.7l-0.2-13.7L1178.3-448.5z M1193-319.4l-55.8,28.5
		l-8.1-13.3L1193-448V-319.4z M1214.4,129l-0.1-8.8l12.4-6.3l13,6.4l-17,8.3l-7.4-0.1L1214.4,129z M1214.6,153l-0.1-14.4l5.3-2.1
		l6.8-4.9l20.7-5.5l0.5,37.5L1214.6,153z M1199.7,144.4l9.3-3.6v10.5l-8.4-2.7L1199.7,144.4L1199.7,144.4z M1193.1,126.7l15.9-4.3
		v9.8l-14.8,8.6l-0.2,0.1L1193.1,126.7z M1180.4,45.5l27.9,62.7l-1.5,0.4l-20.1,9.6l-6.2-5.8L1180.4,45.5L1180.4,45.5z M1206.4,85.2
		l-25.9-51.9v-193.3l22.9-10.1l0.1-17l-0.2-0.1v-285.2l-3-1.4L631.9-731l-3.1-1.4l-2.5,2.3l-170.7,156l-2.6,2.3l1.2,3.2L571-256.5
		l-0.3,19l55.5,17.3c0.5,47.3,20.2,90.1,51.6,120.9l-12.4,12.7l4.1,3.3L44.3,745c-30.2-0.2-55.6,1.1-72.5,4.7v326.5h2109.6V380.4
		l-687,384c-57.2-3.5-123.3-7.7-193.3-12.5v-85.2l65.6-11.5v-26.5l-0.8-0.2l0.1-51.5l3-0.6l0.1-3.7l-3.2,0.6l0-15.3
		c1.8-0.3,2.3-2,0.8-2.8l-86.3-18.5V204.7l74.1-27.8l0-11.6l-2.4-0.5l-0.8-41.6l1.9-1.4l-1.6-18.9L1206.4,85.2L1206.4,85.2z
		 M1216.7,105.8l-6-12l24.9,7.2l-7.4,7.4l-10.8-2.8L1216.7,105.8z M1023.3,211.1l-4.5-6.3l-1.8,0.9l0.4,7.7L1023.3,211.1
		L1023.3,211.1z M1021.9,223.4l7.8-3.5l-3-4.2l-6.9,2.4L1021.9,223.4z M988.9,214.2l-0.7-20.8l-0.7,0.3l-13,17.1L988.9,214.2z
		 M981.7,310l45.8-37.1l-18.8-4.6L981.7,310z M1035.4,274.9l-60.6,45.9l-10.1,15.6l76.7-60.1L1035.4,274.9L1035.4,274.9z
		 M1072.5,261.9l33.2,44.7v-67.7l-5.9,1.5L1072.5,261.9z M1043.4,209.9l-10.4,3.7l2.7,3.7l7.7-3.4V209.9z M1042,193.8l-17.3,8.2
		l4.9,6.7l13.8-5.3v-9.3L1042,193.8L1042,193.8z M1013.7,186.8l6.6,9.1l10.9-4.8L1013.7,186.8z M959.8,207.3l8.8,2.1l14.3-21.7
		l11.9-5.6l-35-8.6V207.3z M959.8,222.8l5.4-8.3l-5.4-1.3V222.8z M989.6,235.2l-0.5-14.9l-18.4-4.4l-10.9,14.3l27,6.7L989.6,235.2
		L989.6,235.2z M992.5,221.1l0.2,12.2l4.3-2.6l8,1.5l4.7-6.8l0.4-0.1L992.5,221.1z M991.9,191.5l0.5,23.5l19.1,4.5l-2.2-11.3
		l-2.7-6.2l7.7-3.4l-9.8-13.7L991.9,191.5L991.9,191.5z M1025.4,85.7l18-11.1v2.6l-14.3,9.6L1025.4,85.7z M959.8,126.1l0.6-0.4
		l20.3,26.9l-20.9-5.1V126.1z M990,101.5l-22.3,14.1l-0.1-0.4l-7.9-5V92.8L990,101.5z M1087.3,33.7l-21.4,10.2V27.6L1087.3,33.7z
		 M886.6,301.1c4.5,2.9,10,4.8,16.3,6l14.4-21.5l-30.7-33V301.1L886.6,301.1z M1123.4,456.4h4.2l1.9-5.8l2.8-0.1l2.1-5.5l0.9-4.7
		l-11.8,9.9L1123.4,456.4L1123.4,456.4z M1162.7,417.4l-15,12.6l-0.9,5.9l-3.2,2.7c-1.1,1.6-0.6,3-1.7,4.6l-5.3,6.9l-1.5,7.4
		c2.7,4.5,3,7.8-1.8,8.7l-3.2,4l-6.7,0.4v26.8l23.1,31.8l16.2,3.5V417.4L1162.7,417.4z M1065.8,489.1l26.8-23.1l-26.8-36V489.1
		L1065.8,489.1z M1098.2,473.5l-27.6,23.8l14,19l7.4,1.5l13.7-20.9v-13.4L1098.2,473.5L1098.2,473.5z M925.8,486.6l-37.1-34.9
		l-2.1,3.1v41.7L925.8,486.6z M968.2,500.5l4.2-3.7l-8.2-3.5L968.2,500.5z M1004.1,543.3v-5.1l4.7,1L1004.1,543.3z M1004.1,577
		v-19.7l17.3-15.6l22,4.5v38.5L1004.1,577z M998.6,562.3l0.1,13.5l-12.4-2.4L998.6,562.3L998.6,562.3z M998.4,537l0.1,11.2
		l-25.7,22.6l-13.1-2.6v-39L998.4,537L998.4,537z M1033.3,530.9l10,2.4v4l-13.6-3.1L1033.3,530.9z M1004.1,524l17.3,4.1l-3.8,3.3
		l-13.5-3V524z M961.5,514l36.9,8.6l0,4.4l-38.6-8.7v-2.9L961.5,514L961.5,514z M998.3,518l-32.6-7.5l16.5-13.8l16,3.5L998.3,518
		L998.3,518z M1025.7,524.3l-21.6-5v-17.9l38.2,8.3L1025.7,524.3z M1043.4,528.4l-5.8-1.3l5.8-5.3V528.4z M917.6,500.1l0.1-6
		l15.8-3.8v5.8L917.6,500.1z M920.8,539.5l-1.1-22.6l13.8-3.2v15.7L920.8,539.5z M921.9,560.8l-0.6-12.5l12.2-10.9v25.6L921.9,560.8
		L921.9,560.8z M912.7,555.9l0.1,3l-2.9-0.6L912.7,555.9z M911.7,518.8l0.7,27.5l-19.9,16.1l-5.9,1.5v-39.2L911.7,518.8L911.7,518.8
		z M911.1,495.7l0.2,6l-24.7,6.2v-6.3L911.1,495.7z M827.9,474.1v-49.3l13.1-18.3l18.7,18.8C849.1,441.5,838.5,457.7,827.9,474.1z
		 M823.7,430.7l1.3,47.9c-2.2,3.5-4.5,7-6.7,10.5v-50.9L823.7,430.7z M860.3,399l-11.9-2.7l-2.9,4l14.8,15.1V399z M933.5,416.4
		l-18.2-4.8l-23.3,35l41.1,38.1l0.4-0.1V416.4z M919.6,405.2l13.9,3.3v-24.2L919.6,405.2L919.6,405.2z M852.9,390.1l7.5,1.6v-11.9
		L852.9,390.1z M831,385.6l15.2,3.2l14.1-19.9v-11.8l-29.3,9.2l-2.1,17.2L831,385.6L831,385.6z M1031,456l12.4,16.2v34.4l-58-12.5
		L1031,456z M1017.5,438.3l9.8,12.8l-49.4,41.3l-18.1-3.9v-65.3L1017.5,438.3L1017.5,438.3z M959.8,362.6l48.5,63.5l-48.5-11.4
		V362.6z M963.6,349.8l-0.7-0.9l80.5-63.9v84.4L963.6,349.8L963.6,349.8z M1021.7,429.3l-51-69.9l72.7,17.3v57.8L1021.7,429.3
		L1021.7,429.3z M1043.4,459.1l-6.1-8.3l6.1-5.1V459.1L1043.4,459.1z M1150.5,396.8l3.2-1l1.7,2.5L1150.5,396.8z M1123.4,405
		l15.4-4.7l18,5.4v2.8l-33.4,30.5V405L1123.4,405z M1069.2,421.4l36.5-11.1v44.4l-7.9,6.8L1069.2,421.4L1069.2,421.4z M1148.1,387.8
		l-13.8,4.1l-10.9-3.3v-35.9L1148.1,387.8L1148.1,387.8z M1077.6,384.5l-8.2,15.8l-3.6,2.7v-21.1L1077.6,384.5z M1105.7,330.1
		l-24.9,48.1l-15-3.4V270.5l39.9,56.8V330.1L1105.7,330.1z M1161,223.1l-37.6,72.7v-62.1l32.4-11.9L1161,223.1L1161,223.1z
		 M1123.4,308.9l39.3-74.5v149.1l-39.3-52.9V308.9z M1086.2,379.4l19.4-36.9v41.3L1086.2,379.4z M1073.1,409.9l0.1-5.6l9.8-18.5
		l22.7,5.1v9.5L1073.1,409.9z M1147.5,25l-0.1-5.5l15.3-6.4v16.3L1147.5,25z M1146.2,20l-0.2,4.6l-6.5-1.9L1146.2,20z M833.5,176.3
		l3.3-10.7l23.5-9.3v26.3L833.5,176.3L833.5,176.3z M860.3,197.4l-9.4,6l-3.9-1l-19.6-22.3l32.9,7.7V197.4z M933.5,137.2l-12.3,21
		l-34.6,22.3v-34.6l46.9-18.6V137.2z M907.8,194.4l20.6-34.3l5.1-3.2v44L907.8,194.4L907.8,194.4z M895.8,214.4l9.3-15.5l28.3,7.5
		v17.3L895.8,214.4z M898.5,197.2l-9.2,15.7l-2.7-0.7V194L898.5,197.2z M886.6,186.8l28.5-18.2l-14.1,24.1l-14.5-3.7V186.8
		L886.6,186.8z M857.9,205.1l2.4-1.5v2.1L857.9,205.1z M818.7,178.1l16.3,21.4l-16.7-4.1V178L818.7,178.1z M860.3,72.4l-42,78.2V52
		l42,12.1V72.4L860.3,72.4z M823.6,155.9l36.7-66.7v51.1L823.6,155.9L823.6,155.9z M1123.4,152.1l10.6-4.8l-10.6-12.9V152.1z
		 M1104.4,160.6l1.3-0.6v-20.2l-9.7,18.5L1104.4,160.6L1104.4,160.6z M1091.8,166.2l3.8-1.7l-2.6-0.7L1091.8,166.2z M1065.8,156.3
		l21.5,5.9l-4.3,8l-11,4.9l-6.2-1.5V156.3L1065.8,156.3z M974.4,131.1l69,19V168l-52.5-12.9L974.4,131.1L974.4,131.1z M972.3,124.8
		l-2.7-0.7l-0.9-1.3l-0.3-2l28.2-17.3l5.4,1.5L972.3,124.8z M1043.4,144L978,126.3l30-19.6l35.4,10.2V144z M1065.8,99.2l36.3,9.5
		l3.5,4.3v15.6l-15.4,28.2l-24.5-6.6L1065.8,99.2L1065.8,99.2z M1065.8,64.7l32.6,39.5l-32.6-8.8V64.7z M1043.4,24.2l-4.1-4.3
		l4.1,1.2V24.2z M1105.7,100.8l-35.4-45l29.7-17.7l5.7,10.2L1105.7,100.8L1105.7,100.8z M1142,115.9l-18.6-5V106l6.6-12.7
		L1142,115.9z M1154,138.4l-13.8,6.2l-16.7-21.2v-9.1l20.6,5.4L1154,138.4z M1159.4,169.1l-15.2-19.4l12.9-5.4l5.6,10.6v12.4
		L1159.4,169.1L1159.4,169.1z M1151.3,173.3l-12.9-3.5l10.6-4.3l5.2,6.2L1151.3,173.3z M1123.4,175.8l5.5-2.2l14.2,3.9l-19.6,10.2
		l-0.1,0V175.8z M1105.1,183.2l0.6-0.2v0.4L1105.1,183.2z M1105.7,177.4l-8.8,3.8l-11.4-2.8l2.7-5.2l15.5-6.5l2,0.6V177.4z
		 M1144.9,160.5l-15.8,6.8l-5.7-1.6v-7.3l14.7-6.2L1144.9,160.5z M933.5,101.8l-24.2-23.6l-22.7-6.5v57.4l46.9-20V101.8z
		 M918.6,80.9l14.9,12.9v-8.6L918.6,80.9z M888.3,22.6l-1.7-0.5v2.5L888.3,22.6z M933.5,35.8l-37.7-11.1l-9.2,16.7v4.2l46.9,13.5
		V35.8L933.5,35.8z M1042.6,68.1l-3.1-3.3l-79.7-21.5v23.4l58.5,16.9L1042.6,68.1L1042.6,68.1z M959.7,36.8l74,22.1l9.6-5.7V38.3
		l-19.5-22.9L959.7-3L959.7,36.8L959.7,36.8z M898.7,19.4l34.8,10.7v-63.3l-6.7,1.5L898.7,19.4L898.7,19.4z M886.6,15.7l6.1,1.9
		l29.1-57.9l-35.2,15.9V15.7z M989.5-49.5l43.8-30.1l10.1,18.6v28.8L989.5-49.5z M981.6-44.1l2.5-1.7l59.3,19.6V-5l-38-10.9
		L981.6-44.1L981.6-44.1z M959.8-29.1l16.4-11.3l0.3,0.2l17.9,21.1L959.8-29.1L959.8-29.1z M971.1-43.7l-11.4,7.8V-51L971.1-43.7z
		 M1030.5-84.6l-47.8,32.9l-10.3-3.3l-12.6-14.9v-8.6l31.3-21.7l37.5,12L1030.5-84.6z M1151.6-146.2l-28.2,58.3v-44.2L1151.6-146.2z
		 M1159.6-8.5l-36.2-66.3v-7.3l39.2-69.5l0.1,0v141.1L1159.6-8.5L1159.6-8.5z M1123.4-8.5l22.2,5.1l-2.5-11.3l-19.7-23.4V-8.5z
		 M1143.1,3.1l-19.6-5.4V3l5.5,10.1L1143.1,3.1z M1148.1-18.6l2,16.2l0.7,0.2l4.5-3.2L1148.1-18.6L1148.1-18.6z M1123.4-46.5
		l18.8,20.3l2.2,0.9l-21-38.8V-46.5z M1086.2-114.6l-15.1,8.5l14.2,16L1086.2-114.6z M1105.7-67.2v-33.6l-12.1-18.1l-4.4,2.5
		l-1.4,29L1105.7-67.2L1105.7-67.2z M1086.6-63.1l19.1,34v-29.5l-18.3-21L1086.6-63.1L1086.6-63.1z M246.1,554.3l0.8,7.9l13.9-12.7
		L246.1,554.3L246.1,554.3z M238.1,545.9l-3.6-35.8l-37.2,49.3L238.1,545.9L238.1,545.9z M210.4,604.6l37.1,33.6l-6.2-61.7
		L210.4,604.6z M182.3,579.2l23.2,21l34.9-32l-1.2-11.6L186.2,574L182.3,579.2z M155.5,654.8l87.4-8.7L205,609.6L155.5,654.8
		L155.5,654.8z M136.2,656.7l8.7-0.9l55.4-50.9l-21.6-20.9L128.9,650L136.2,656.7L136.2,656.7z M132.9,663.4l-4.4,0.5l0.9,6.3l5.4-5
		L132.9,663.4z M244.4,651.4l-96.5,10.3l-3.2,2.9l38.1,35.7l34.5-9.1L244.4,651.4L244.4,651.4z M405.1,551.4l26.1,23.3l-5.9-42.6
		L405.1,551.4z M321.8,603.9l9.8,8.6l-7.5,7.3L321.8,603.9z M335.4,608.8l-11.3-9.5L346,598l0,0.5L335.4,608.8L335.4,608.8z
		 M345.4,617.2l-4.8-4l5.1-4.9L345.4,617.2z M340.7,738.5l0.9,0.7l3.5-114.8l-8.5-7.5l-11.5,11L340.7,738.5L340.7,738.5z
		 M268.9,681.9l64.1,50.5l-13.4-99.1L268.9,681.9L268.9,681.9z M336.5,758.9l-0.8-5.8l-41,8.9c12.8,1.3,25.6,2.5,38.2,3.4
		L336.5,758.9L336.5,758.9z M389.7,663.7l-37.4-32.9l-2.8,104.9L389.7,663.7L389.7,663.7z M429,593.1l-71.9,4.2l-4,3.8l-0.6,22
		l40.7,34.2L429,593.1L429,593.1z M433.5,585.2L400.3,556l-36.6,35.1l69.1-4.6L433.5,585.2L433.5,585.2z M354.6,544.7l-1.3,46.7
		l41.5-40.2l-28.4-25L354.6,544.7z M323.2,593.7l23-1.5l1.1-36.1L323.2,593.7L323.2,593.7z M278,664.4l40.5-39.3l-2.7-19.9
		L278,664.4L278,664.4z M273.8,759.9l60.9-14.6l-0.7-5.2L264.2,686l-44.1,69c5.7,0.5,11.4,1,17.1,1.4
		C249.3,757.5,261.6,758.7,273.8,759.9L273.8,759.9z M277.4,621.1l-1.8,28l72.3-113l0.5-15.6l-3.3,1.1L277.4,621.1L277.4,621.1z
		 M265.9,664.3l2.6-30.2l-36.2,53.2l22.7-6L265.9,664.3z M305.3,561.8l-21.7-18.9l0.1-1l45.3-15L305.3,561.8L305.3,561.8z
		 M282.9,552.1l18.3,15.9l-22.4,32.9L282.9,552.1z M275.2,545.4l0.8,0.7l-5.8,67.2l-15.9,23.3l-6.6-66.2L275.2,545.4L275.2,545.4z
		 M242.4,516.9l22.9,19.9l-20.3,6.7L242.4,516.9z M278.9,501.8l-35.2,6.2l-4.6-4l43.2-57.2L278.9,501.8z M327.9,497.2l24.2-4.2
		L339,512.4l-43.4,14.4L327.9,497.2z M286.9,504.3l28.4-4.9L285,527.2L286.9,504.3L286.9,504.3z M247.3,511.1l31.4-5.4L277,533
		l-3.4,1.1L247.3,511.1L247.3,511.1z M337,479.5L292,444.4l-0.5,4.7l-4.3,51.4l33.4-5.8L337,479.5z M349.7,489.4l-7.2-5.6l-9.3,8.5
		L349.7,489.4z M358.5,483.6l-1.4-13.1l27.2-24.9L358.5,483.6L358.5,483.6z M351.9,475.3l0.9,8.1l-5.1-4.2L351.9,475.3z
		 M345.7,418.9l5.3,47.8l-8.7,8l-45.4-37.9L345.7,418.9z M416.1,465.8l-14,4.6l8.3-13l1.1-1.1l3,2.7l0.6,0.3L416.1,465.8
		L416.1,465.8z M396.9,478.6l20.1-6.8l7.1,51.1l-24.4,23.6l-29.4-26.3L396.9,478.6z M367.5,488.6l13.8-4.7l-11.7,18.2l-14.7,4.9
		L367.5,488.6L367.5,488.6z M464.2,494.8l13,12l-37.6,67.4l-7.8-48.3L464.2,494.8L464.2,494.8z M433.2,466.3l25.3,23.2l-28,27.2
		l-7.6-46.9L433.2,466.3z M420.7,454.9l7.6,6.9l-6.4,2.1l-0.9-5.8L420.7,454.9z M433.9,460l-12.8-11.4l65.7-8.2l-5.7,4L433.9,460
		L433.9,460z M462.5,485.6l-23.7-21.2l70.7-24.1l-1.8,1.4L462.5,485.6L462.5,485.6z M480.2,501.4l-11.9-10.6l38.1-36.5L480.2,501.4
		L480.2,501.4z M341.6,381.6l-35.1,33.2l33.9-44.8L341.6,381.6z M310.4,421.3l32-32.4l2.2,19.9L310.4,421.3L310.4,421.3z
		 M387.5,403.6l15.8,14.3l-1.6,2.3l0-0.1l-45.5,41.7l-4.7-45.1L387.5,403.6z M356,375.1l23.3,21.1l-28.9,10.5l-2.5-23.5L356,375.1z
		 M346.1,366.2l5.7,5.1l-4.6,4.7L346.1,366.2z M407.9,411l-12.5-10.4l26-9.5L407.9,411L407.9,411z M397.5,458.6l-10.8,1.7
		l-13.3,19.5l13.3-4.4L397.5,458.6L397.5,458.6z M434.5,390l4.5,3.6l-28.9,45.1l-9.2,0.5L434.5,390z M459.5,382.2l-2.8,2.9l2.2-3.4
		L459.5,382.2z M444.6,404.1l18.4-19l56.3,46.4l-0.1,0.1l-101.1,13.9L444.6,404.1L444.6,404.1z M506.7,340.2l13.5,82.9l-53.1-42.3
		L506.7,340.2z M536,342.2l22.9,18.1l-29.8,53.4L536,342.2L536,342.2z M518.3,328.2l11.5,9.1l-6.1,60.8l-10.3-64.8L518.3,328.2z
		 M511.7,323.1l2.7,2.1l-2,2.1L511.7,323.1z M530.5,330.8l-8.3-6.6l10-10.5L530.5,330.8L530.5,330.8z M539.3,307.6l55.1-10.9
		l-32.8,58.8l-25-19.9L539.3,307.6L539.3,307.6z M510.2,313.4l19-3.8l-10.9,11.5l-7.9-6.3L510.2,313.4L510.2,313.4z M501.5,315.1
		l0.1,0l1.1,0.9l3,18.4L463.6,378l-1.5-1.2L501.5,315.1L501.5,315.1z M533.2,303.4l-23.8,5.3l-0.8-4.9l29.1-45.4L533.2,303.4z
		 M574.4,269.7l24.8,18.6l-0.3,0.5l-54.4,12.1L574.4,269.7z M545.1,247.8l25,18.7L540.3,298L545.1,247.8L545.1,247.8z M363.5,359.5
		l-14.4,2.7l6.4,5.3L363.5,359.5z M454.8,342l-81.5,15.5l-13.4,13.6l26.9,22.3l43.9-16L454.8,342L454.8,342z M529.5,250.4l1.6-0.6
		l-77.4,121l-7.1,1.5L529.5,250.4L529.5,250.4z M413.6,308.7l-13.6-9.9l-8.4,3.1l-41.5,55l19.4-3.5L413.6,308.7L413.6,308.7z
		 M453.7,338l-35.5-26l-39,39.5L453.7,338L453.7,338z M409,295.4l9.9,7.9l18.1-18.4L409,295.4z M450,280.1l6.7,53.4l-33.3-26.6
		l26.3-26.6L450,280.1z M468.6,273.2l-6.9,52.5l-6.1-47.6L468.6,273.2z M470.4,259.3l-0.2,1.8l-2.7,1.2L470.4,259.3z M485.2,267
		l13.4,10.7l-29.5,43.4l6.9-50.7L485.2,267L485.2,267z M450.5,239.2l18.1,14.4l-14.4,14.2L450.5,239.2L450.5,239.2z M443.3,233.5
		l0.9,0.7l4.5,36.2L403,290.5l-1.7-1.4L443.3,233.5z M501.8,272.9l-10.4-8.3l21.5-8L501.8,272.9z M474.8,225.7l-25.5,4.5l0.1,0.7
		l22.4,18L474.8,225.7z M501.4,221.1l-19.2,3.4l-2.5,18.1L501.4,221.1z M448.9,227l26.4-4.8l5-37.7l-31.5,41.7L448.9,227z
		 M488.6,177.8l5.4-2.4l30.4,22.9l-1.9,1.9l-16.7,16.5l-23.1,4.2L488.6,177.8L488.6,177.8z M594.6,248.7l4,29.3l-19.1-13.6
		L594.6,248.7z M626.7,215.4l9,7.5l-30.3,54.4l-5.3-34.1L626.7,215.4L626.7,215.4z M638.4,217.9l-7.9-6.5l27.5-28.6L638.4,217.9z
		 M587.2,194.6l-12,5.2l10.4-16.3L587.2,194.6L587.2,194.6z M596.7,190.5l-4.5,2l-1-6.6L596.7,190.5z M606.3,191.7l58-24l-38.4,40
		L606.3,191.7z M592.9,197.2l7.9-3.3l21.3,17.7l-23.2,24.4L592.9,197.2z M571.1,206.2l16.7-6.9l5.8,42.3l-18.6,19.6l-26.9-19.1
		L571.1,206.2L571.1,206.2z M591.5,179.7l63-14.3L602,188.2L591.5,179.7z M738.4-41.5l32.2,22.6l9.1-16.4
		c-10.9-2.6-21.5-6.4-31.7-11.5L738.4-41.5z M679.9-75.3l-5.8,3l3.6-4.8L679.9-75.3z M742.9,16.1l19.2-19.8l-16.9,30.3L742.9,16.1z
		 M731.8,27.7l6-6.2l2.6,12.7L731.8,27.7z M736.7,16.2l-8.5,8.7L706.2,8.2l2.8-17.6L724.8-34l1.5-0.8L736.7,16.2z M765.9-13.8
		l-24,24.7l-10.3-48.6l2.7-1.5L765.9-13.8z M635.3,127.3l37.1,29.3l-81.6,18.8l4-6.3L635.3,127.3L635.3,127.3z M626.2,120.2l5.2,4.1
		l-23,23.7L626.2,120.2z M702,104l-11.5,2.2l-4.1,25.8L702,104z M712.3-46.6l-6.7,6.3l-1.4-16l3.3,2.6L712.3-46.6L712.3-46.6z
		 M706.3-32l7.9-7.3l-6.3,9.3l-1.4,0.3L706.3-32z M678.2,145.1l-6.4-35.4l12.7-2.4L678.2,145.1z M666.1,110.8l7.2,38.3L639.5,123
		l8.5-8.8L666.1,110.8L666.1,110.8z M663.7,98l1.5,7.9l-11.3,2.2L663.7,98z M658.4,69.8l4.2,22.5l-17,17.5l-14.6,2.8L658.4,69.8z
		 M690,74.6l-2.1-1.6l2.8-2.9L690,74.6z M693.7,86.6l12.4,10.1l-0.8,1.5l-13.9,2.7L693.7,86.6L693.7,86.6z M683.1,77.9l5.6,4.5
		l-3.3,19.6l-14.5,2.8l-2.2-12.1L683.1,77.9z M663.4,61.9l16,13l-11.7,12l-4.5-24.8L663.4,61.9L663.4,61.9z M695.2,46l-25.4,6
		l27.7-43.3l1.5,1.2L695.2,46z M711.4,42.1l-11,2.6l4.8-30l18.5,14.7L711.4,42.1L711.4,42.1z M733.1,37l-13.5,3.2l7.6-7.8L733.1,37z
		 M710.3,49.8l24.7-5l-25.1,45L695,78.4l2.4-15.2L710.3,49.8z M699.2,52.1l3.1-0.6l-3.6,3.7L699.2,52.1z M668.7,58.3l25-5.1
		l-0.4,1.4l-1.2,7.4l-7.9,8.2L668.7,58.3L668.7,58.3z M536.9,156.3l2,27.3l-11,11.1l-27.2-22.3L536.9,156.3z M534.8,128.2l1.3,17.2
		l-39,18.1L534.8,128.2z M533.8,113.7l0.6,7.7l-22.9,21.9L533.8,113.7z M535,215.2c0.6,1.8,1.6,3.4,2.9,4.6l-11.1,16.4L481,256.3
		l-2.8-2.3l0.4-3l31.1-31.3L535,215.2L535,215.2z M535.3,206.5c-0.6,1.4-1,3.1-1,4.7l0,0.3l-20.3,3.7l14-14.1L535.3,206.5z
		 M540.3,200.9c-0.9,0.5-1.8,1.1-2.5,1.9l-6.3-5.2l7.9-8L540.3,200.9z M586.4,143.5l2.5,1.4L550.7,201c-1.5-0.9-3.3-1.4-5.1-1.4
		l-1.1-15L586.4,143.5L586.4,143.5z M577.4,138.2l4.2,2.5l-0.1,0.2l-37.4,37.6l-1.8-24.6L577.4,138.2z M544.5,119.1l21.4,12.5
		l-24.4,11.3l-1.4-19.7L544.5,119.1z M554.6,102l-14.3,3l-1.3,1.7l0.1,1.2l5.8,3.4L554.6,102L554.6,102z M615.8,43.7l-17.7,9.4
		l4.1,3.6L615.8,43.7z M668.8,2.7l26.6-14.5l3.8-5.6l-0.1-3.4l-5.8,0.9L668.8,2.7L668.8,2.7z M597,61.6l-7-6.4l-16,5.2l-28.8,38.1
		l16.4-3.2L597,61.6L597,61.6z M620.1,84.1l0.1-1.4l-18.7-17L572,93.4L620.1,84.1L620.1,84.1z M619.4,100l0.5-11.4L565,99.9
		l-15.3,14.3l23.5,14l24.9-11.6l17.7-11.3L619.4,100L619.4,100z M660.1,20.1l9,6.8l12.3-18.1L660.1,20.1L660.1,20.1z M666.1-58.5
		l0.5-1.9l19.9-9.7l10.8,8.5l1.2,27.7L666.1-58.5z M657-20.8l7.4-30.3l28.2,23l-1.2,1.1L657-20.8z M649.1,11.8l6.3-26l26.6-4
		l-32.5,30.3L649.1,11.8L649.1,11.8z M633.3,76.7l11.8-48.7l8.1-4.3l11.9,9l-29.9,44L633.3,76.7L633.3,76.7z M648-13.1l-4.8,20.4
		L624.5-6.6l2.5-3.3L648-13.1z M656.4-48.9l-7,29.5l-17.7,3.2L656.4-48.9L656.4-48.9z M627.3,25.3l-2.5-23.1l16.6,12.6l-0.8,3.3
		L627.3,25.3z M630.9,58.7l-2-18.6l8.2-7.7l0.1-0.1L630.9,58.7z M622.5,46l3.5,30.4l-1.5-0.1l-17.6-15.6L622.5,46L622.5,46z
		 M617.5,2.7l3,26.3L589,46.1l-3.4-1.2L617.5,2.7z M1065.9-103.1v3l18.6,33.1l0.6-15.4l-18.4-21.1L1065.9-103.1L1065.9-103.1z"/>
</g>
</svg>
