<?xml version="1.0" encoding="utf-8"?>
<!-- Generator: Adobe Illustrator 19.0.0, SVG Export Plug-In . SVG Version: 6.00 Build 0)  -->
<svg version="1.1" id="Layer_1" xmlns="http://www.w3.org/2000/svg" xmlns:xlink="http://www.w3.org/1999/xlink" x="0px" y="0px"
	 viewBox="0 0 200 200" style="enable-background:new 0 0 200 200;" xml:space="preserve">
<style type="text/css">
	.st0{fill:none;stroke:#FFFFFF;stroke-width:1.417;stroke-miterlimit:10;}
	.st1{fill:#FFFFFF;}
	.st2{fill:none;stroke:#FFFFFF;stroke-width:0.709;stroke-miterlimit:10;}
	.st3{fill:none;stroke:#FFFFFF;stroke-width:0.283;stroke-miterlimit:10;}
</style>
<g id="XMLID_50_">
	<path id="XMLID_96_" class="st0" d="M117.1,59.8l-14.1,14.1 M91.6,85.4c-7.4,7.4-14.9,14.9-22.3,22.3c0.7,0.7,1.6,1.6,2.3,2.3
		c0.8,0.8,1.6,1.6,2.4,2.4c15.9-15.9,31.9-31.9,47.8-47.8c-0.8-0.8-1.6-1.6-2.4-2.4c-15,15-30,30-45,45 M134.2,66.4l7.6,7.6
		c-1.8,1.8-3.5,3.5-5.3,5.3c-1.1-1.1-2.2-2.2-3.3-3.3c0.9-0.9,1.9-1.9,2.8-2.8 M112.1,35.4c-3.2,3.2-6.5,6.5-9.7,9.7
		c0.6,0.6,1.3,1.3,1.9,1.9c0.3,0.3,0.5,0.5,0.8,0.8 M110.7,53.4c6.4,6.4,12.9,12.8,19.3,19.3c0.9-0.9,1.8-1.8,2.6-2.7
		c-8.3-8.3-16.7-16.6-25-24.9c0.9-0.9,1.8-1.8,2.6-2.6c6.1,6.1,12.2,12.2,18.3,18.3 M116.4,32.9c11.1,11.1,22.1,22.1,33.2,33.2
		c-1.7,1.7-3.5,3.5-5.2,5.2c-10.5-10.5-21-21-31.5-31.5c0.9-0.9,1.8-1.8,2.6-2.6c9.3,9.3,18.6,18.6,27.9,28 M74.9,62.6
		c16.6,16.6,33.2,33.2,49.7,49.8c1.7-1.7,3.4-3.4,5.1-5.1C113.2,90.8,96.6,74.2,80,57.6c0.4-0.4,0.8-0.8,1.3-1.3
		c-0.8-0.8-1.6-1.6-2.4-2.4c2-1.7,4-3.5,6-5.2c5-4.2,9.9-8.2,14.8-12c-5.8,1.3-15.1,4.1-24.8,10.9c-11.2,7.8-17.6,17.1-20.7,22.5
		c2.1,2.1,4.3,4.3,6.4,6.4c1.3-2.4,2.8-4.9,4.7-7.6c2-2.8,4-5.3,5.8-7.4c0.8,0.8,1.7,1.7,2.5,2.5C74.1,63.5,74.5,63.1,74.9,62.6z"/>
	<path id="XMLID_42_" class="st1" d="M92.3,86.3c-0.4,0.4-1.1,0.4-1.5,0c-0.4-0.4-0.4-1.1,0-1.5c0.4-0.4,1.1-0.4,1.5,0
		C92.7,85.2,92.7,85.9,92.3,86.3"/>
	
		<ellipse id="XMLID_41_" transform="matrix(0.7071 0.7071 -0.7071 0.7071 87.3206 -39.6487)" class="st2" cx="91.5" cy="85.6" rx="1.1" ry="1.1"/>
	<path id="XMLID_40_" class="st1" d="M103.6,75c-0.4,0.4-1.1,0.4-1.5,0c-0.4-0.4-0.4-1.1,0-1.5c0.4-0.4,1.1-0.4,1.5,0
		C104,73.9,104,74.6,103.6,75"/>
	<circle id="XMLID_39_" class="st2" cx="102.8" cy="74.2" r="1.1"/>
	<path id="XMLID_38_" class="st1" d="M136.1,74.8c-0.4,0.4-1.1,0.4-1.5,0c-0.4-0.4-0.4-1.1,0-1.5c0.4-0.4,1.1-0.4,1.5,0
		C136.6,73.7,136.6,74.4,136.1,74.8"/>
	<circle id="XMLID_37_" class="st2" cx="135.4" cy="74.1" r="1.1"/>
	<path id="XMLID_36_" class="st1" d="M130.3,62.4c-0.4,0.4-1.1,0.4-1.5,0c-0.4-0.4-0.4-1.1,0-1.5c0.4-0.4,1.1-0.4,1.5,0
		C130.8,61.3,130.8,62,130.3,62.4"/>
	<circle id="XMLID_35_" class="st2" cx="129.6" cy="61.6" r="1.1"/>
	<path id="XMLID_34_" class="st1" d="M134.4,66.4c-0.4,0.4-1.1,0.4-1.5,0c-0.4-0.4-0.4-1.1,0-1.5c0.4-0.4,1.1-0.4,1.5,0
		C134.9,65.3,134.9,66,134.4,66.4"/>
	<circle id="XMLID_33_" class="st2" cx="133.7" cy="65.7" r="1.1"/>
	<path id="XMLID_32_" class="st1" d="M144.6,66.1c-0.4,0.4-1.1,0.4-1.5,0c-0.4-0.4-0.4-1.1,0-1.5c0.4-0.4,1.1-0.4,1.5,0
		C145,65,145,65.7,144.6,66.1"/>
	<circle id="XMLID_31_" class="st2" cx="143.8" cy="65.4" r="1.1"/>
	<path id="XMLID_30_" class="st1" d="M106.5,49.2c-0.4,0.4-1.1,0.4-1.5,0c-0.4-0.4-0.4-1.1,0-1.5c0.4-0.4,1.1-0.4,1.5,0
		C106.9,48.1,106.9,48.7,106.5,49.2"/>
	<circle id="XMLID_29_" class="st2" cx="105.8" cy="48.4" r="1.1"/>
	<path id="XMLID_28_" class="st1" d="M110.6,53.2c-0.4,0.4-1.1,0.4-1.5,0c-0.4-0.4-0.4-1.1,0-1.5c0.4-0.4,1.1-0.4,1.5,0
		C111.1,52.1,111.1,52.8,110.6,53.2"/>
	<circle id="XMLID_27_" class="st2" cx="109.9" cy="52.5" r="1.1"/>
	<path id="XMLID_26_" class="st1" d="M116.3,32.7c-0.4,0.4-1.1,0.4-1.5,0c-0.4-0.4-0.4-1.1,0-1.5c0.4-0.4,1.1-0.4,1.5,0
		C116.8,31.6,116.8,32.2,116.3,32.7"/>
	<circle id="XMLID_25_" class="st2" cx="115.6" cy="31.9" r="1.1"/>
	<path id="XMLID_24_" class="st0" d="M115.5,132.7c-4.4,1-8.9,1.5-13.6,1.5c-34.6,0-62.6-28-62.6-62.6c0-34.6,28-62.6,62.6-62.6
		s62.6,28,62.6,62.6c0,20.1-9.5,38-24.3,49.5"/>
	<path id="XMLID_23_" class="st2" d="M58.9,17c26.5-21,65-20.2,90.7,3.4c28.4,26.1,30.2,70.3,4.1,98.7
		c-26.1,28.4-70.3,30.2-98.7,4.1c-24.3-22.4-29.2-58-13.7-85.6"/>
	<path id="XMLID_22_" class="st1" d="M59.2,17.6c-0.1,0.6-0.6,1-1.2,0.9c-0.6-0.1-1-0.6-0.9-1.2c0.1-0.6,0.6-1,1.2-0.9
		C58.9,16.5,59.3,17,59.2,17.6"/>
	<circle id="XMLID_21_" class="st2" cx="58.1" cy="17.4" r="1.1"/>
	<path id="XMLID_20_" class="st1" d="M42.7,36.8c-0.1,0.6-0.6,1-1.2,0.9c-0.6-0.1-1-0.6-0.9-1.2c0.1-0.6,0.6-1,1.2-0.9
		C42.4,35.7,42.8,36.3,42.7,36.8"/>
	<circle id="XMLID_19_" class="st2" cx="41.7" cy="36.7" r="1.1"/>
	<path id="XMLID_18_" class="st1" d="M117.2,133.2c-0.4,0.4-1.1,0.4-1.5,0c-0.4-0.4-0.4-1.1,0-1.5c0.4-0.4,1.1-0.4,1.5,0
		C117.6,132.1,117.6,132.8,117.2,133.2"/>
	<circle id="XMLID_17_" class="st2" cx="116.5" cy="132.5" r="1.1"/>
	<path id="XMLID_16_" class="st1" d="M140.4,122.5c-0.4,0.4-1.1,0.4-1.5,0c-0.4-0.4-0.4-1.1,0-1.5c0.4-0.4,1.1-0.4,1.5,0
		C140.9,121.4,140.9,122,140.4,122.5"/>
	<circle id="XMLID_15_" class="st2" cx="139.7" cy="121.7" r="1.1"/>
	<path id="XMLID_14_" class="st1" d="M112.3,36.8c-0.4,0.4-1.2,0.4-1.6,0c-0.4-0.4-0.4-1.2,0-1.6c0.4-0.4,1.2-0.4,1.6,0
		C112.7,35.6,112.7,36.4,112.3,36.8"/>
	<circle id="XMLID_13_" class="st3" cx="111.5" cy="36" r="1.1"/>
	<path id="XMLID_53_" class="st0" d="M158.8,197.7h-7v-7h7V197.7z M197.2,173.2h-8.5v24.6h-7v-24.6h-8.5v-5.5h23.9V173.2z
		 M169.7,197.7h-7v-30.1h7V197.7z M137,186.2l-2.8-8.2c-0.2-0.5-0.4-1.1-0.7-1.8c-0.2-0.7-0.5-1.5-0.7-2.3c-0.2,0.8-0.4,1.6-0.7,2.3
		c-0.2,0.7-0.5,1.3-0.7,1.9l-2.8,8.2H137z M148.1,197.7h-5.4c-0.6,0-1.1-0.1-1.5-0.4c-0.4-0.3-0.7-0.6-0.8-1.1l-1.8-5.2h-11.4
		l-1.8,5.2c-0.2,0.4-0.4,0.7-0.8,1c-0.4,0.3-0.9,0.5-1.5,0.5h-5.5l11.6-30.1h7.1L148.1,197.7z M105.8,192.5c0.9,0,1.7-0.1,2.3-0.4
		c0.6-0.2,1-0.5,1.4-0.9c0.3-0.4,0.6-0.8,0.7-1.3c0.1-0.5,0.2-0.9,0.2-1.4c0-0.6-0.1-1-0.2-1.5c-0.1-0.4-0.4-0.8-0.7-1.1
		c-0.4-0.3-0.8-0.5-1.4-0.7c-0.6-0.2-1.3-0.2-2.2-0.2h-4.9v7.5H105.8z M100.9,172.9v7.4h3.6c0.8,0,1.5-0.1,2.1-0.2
		c0.6-0.1,1.1-0.3,1.6-0.6c0.4-0.3,0.8-0.7,1-1.1c0.2-0.5,0.3-1.1,0.3-1.8c0-0.7-0.1-1.3-0.3-1.8c-0.2-0.5-0.5-0.9-0.8-1.1
		c-0.4-0.3-0.8-0.5-1.4-0.6c-0.6-0.1-1.3-0.2-2-0.2H100.9z M105,167.6c2.1,0,3.8,0.2,5.3,0.6c1.5,0.4,2.7,0.9,3.6,1.6
		c0.9,0.7,1.6,1.6,2,2.6c0.4,1,0.6,2.1,0.6,3.4c0,0.7-0.1,1.3-0.3,2c-0.2,0.6-0.5,1.2-0.9,1.8c-0.4,0.5-0.9,1-1.6,1.5
		c-0.6,0.5-1.4,0.8-2.3,1.2c2,0.5,3.5,1.3,4.4,2.3c1,1.1,1.4,2.5,1.4,4.2c0,1.3-0.2,2.5-0.7,3.6c-0.5,1.1-1.2,2.1-2.2,2.9
		c-1,0.8-2.1,1.5-3.5,1.9c-1.4,0.5-3,0.7-4.8,0.7h-12v-30.1H105z M75.5,192.2c0.9,0,1.8-0.2,2.5-0.5c0.7-0.3,1.4-0.8,1.9-1.3
		c0.5-0.6,0.9-1.3,1.2-2.1c0.3-0.8,0.4-1.8,0.4-2.8v-17.8h7v17.8c0,1.8-0.3,3.5-0.9,5.1c-0.6,1.5-1.5,2.9-2.6,4
		c-1.1,1.1-2.5,2-4.1,2.6c-1.6,0.6-3.4,0.9-5.4,0.9c-2,0-3.8-0.3-5.4-0.9c-1.6-0.6-3-1.5-4.1-2.6c-1.1-1.1-2-2.4-2.6-4
		c-0.6-1.5-0.9-3.2-0.9-5.1v-17.8h7v17.8c0,1.1,0.1,2,0.4,2.8c0.3,0.8,0.7,1.5,1.2,2.1c0.5,0.6,1.1,1,1.9,1.3
		C73.8,192.1,74.6,192.2,75.5,192.2z M45.9,181.8c0.9,0,1.8-0.1,2.4-0.4c0.7-0.2,1.2-0.6,1.6-1c0.4-0.4,0.7-0.9,0.9-1.5
		c0.2-0.6,0.3-1.2,0.3-1.8c0-1.3-0.4-2.4-1.3-3.1c-0.9-0.7-2.2-1.1-4-1.1h-2.8v8.9H45.9z M60.7,197.7h-6.3c-1.2,0-2-0.4-2.5-1.3
		l-5-8.7c-0.2-0.4-0.5-0.6-0.8-0.8c-0.3-0.2-0.7-0.3-1.2-0.3h-1.8v11.1h-7v-30.1h9.8c2.2,0,4,0.2,5.6,0.7c1.5,0.4,2.8,1.1,3.8,1.9
		c1,0.8,1.7,1.7,2.1,2.8c0.4,1.1,0.7,2.3,0.7,3.6c0,1-0.1,1.9-0.4,2.8c-0.3,0.9-0.6,1.7-1.2,2.4c-0.5,0.7-1.1,1.4-1.9,2
		c-0.7,0.6-1.6,1.1-2.6,1.4c0.5,0.2,0.9,0.5,1.3,0.9c0.4,0.4,0.8,0.8,1.1,1.2L60.7,197.7z M20.7,182.1h10.7v12.7
		c-1.5,1.1-3.2,1.9-4.9,2.5c-1.7,0.5-3.6,0.8-5.5,0.8c-2.5,0-4.7-0.4-6.8-1.2c-2-0.8-3.8-1.9-5.2-3.2c-1.4-1.4-2.6-3-3.3-4.9
		c-0.8-1.9-1.2-3.9-1.2-6.1c0-2.2,0.4-4.3,1.1-6.2c0.7-1.9,1.8-3.5,3.2-4.9c1.4-1.4,3.1-2.4,5-3.2c2-0.8,4.2-1.1,6.6-1.1
		c1.3,0,2.4,0.1,3.5,0.3c1.1,0.2,2.1,0.5,3,0.8c0.9,0.4,1.8,0.8,2.6,1.3c0.8,0.5,1.5,1,2.1,1.6l-2,3.1c-0.3,0.5-0.7,0.8-1.2,0.9
		c-0.5,0.1-1,0-1.6-0.4c-0.6-0.3-1.1-0.6-1.6-0.9c-0.5-0.2-1-0.4-1.5-0.6c-0.5-0.2-1-0.3-1.6-0.3c-0.6-0.1-1.2-0.1-1.9-0.1
		c-1.3,0-2.5,0.2-3.5,0.7c-1,0.5-1.9,1.1-2.7,2c-0.7,0.8-1.3,1.8-1.7,3c-0.4,1.2-0.6,2.5-0.6,3.9c0,1.6,0.2,3,0.7,4.3
		c0.4,1.2,1.1,2.3,1.9,3.1c0.8,0.9,1.8,1.5,2.9,2c1.1,0.4,2.4,0.7,3.7,0.7c0.8,0,1.6-0.1,2.3-0.2c0.7-0.2,1.3-0.4,2-0.7v-4.6h-3
		c-0.4,0-0.8-0.1-1-0.4c-0.2-0.2-0.4-0.5-0.4-0.9V182.1z"/>
</g>
</svg>
