<?xml version="1.0" encoding="UTF-8" standalone="no"?>
<?xml-stylesheet type="text/css" href="/css/style.css"?>

<!-- Created with Inkscape (http://www.inkscape.org/) -->

<svg
   xmlns:dc="http://purl.org/dc/elements/1.1/"
   xmlns:cc="http://creativecommons.org/ns#"
   xmlns:rdf="http://www.w3.org/1999/02/22-rdf-syntax-ns#"
   xmlns:svg="http://www.w3.org/2000/svg"
   xmlns="http://www.w3.org/2000/svg"
   xmlns:sodipodi="http://sodipodi.sourceforge.net/DTD/sodipodi-0.dtd"
   xmlns:inkscape="http://www.inkscape.org/namespaces/inkscape"
   width="209.85562mm"
   height="153.8176mm"
   viewBox="0 0 743.58291 545.02298"
   id="svg2"
   version="1.1"
   inkscape:version="0.91 r13725"
   sodipodi:docname="drawing.svg">
  <defs
     id="defs4" />
  <sodipodi:namedview
     id="base"
     pagecolor="#ffffff"
     bordercolor="#666666"
     borderopacity="1.0"
     inkscape:pageopacity="0.0"
     inkscape:pageshadow="2"
     inkscape:zoom="0.98994949"
     inkscape:cx="755.44233"
     inkscape:cy="304.85179"
     inkscape:document-units="px"
     inkscape:current-layer="layer1"
     showgrid="false"
     inkscape:window-width="1855"
     inkscape:window-height="1056"
     inkscape:window-x="65"
     inkscape:window-y="24"
     inkscape:window-maximized="1"
     fit-margin-top="0"
     fit-margin-left="0"
     fit-margin-right="0"
     fit-margin-bottom="0" />
  <metadata
     id="metadata7">
    <rdf:RDF>
      <cc:Work
         rdf:about="">
        <dc:format>image/svg+xml</dc:format>
        <dc:type
           rdf:resource="http://purl.org/dc/dcmitype/StillImage" />
        <dc:title></dc:title>
      </cc:Work>
    </rdf:RDF>
  </metadata>
  <g
     inkscape:label="Layer 1"
     inkscape:groupmode="layer"
     id="layer1"
     fill="white"
     transform="translate(0.28949376,-0.43863548)">
    <path
       class="svg-a24-logo"
       d="M 186.15355,377.52799 1.1710967,209.58722 0.44081072,205.03616 -0.28949376,200.48512 14.578582,176.79528 c 18.352894,-29.24239 2.611786,-37.9765 113.409228,62.92618 l 95.10984,86.61607 150.03603,0 150.03606,0 66.578,-61.44558 c 36.61792,-33.79508 79.70368,-73.13593 95.74616,-87.42412 l 29.16814,-25.97852 14.31568,23.61963 c 7.87365,12.99079 14.31572,25.38581 14.31572,27.54447 l 0,3.92484 -134.32157,122.80587 c -73.87685,67.54319 -156.84053,143.7903 -184.36371,169.43805 -27.5232,25.6477 -50.81392,46.63544 -51.75717,46.63942 -0.94326,0.004 -84.9571,-75.56617 -186.69744,-167.9336 z m 249.0204,30.46024 26.38011,-25.38727 -88.457,0 -88.45701,0 2.95604,2.47905 c 1.62584,1.36351 21.5615,19.44163 44.30155,40.17364 l 41.34547,37.69457 17.77537,-14.78637 c 9.77645,-8.13248 29.64644,-26.21059 44.15547,-40.17362 z M 167.64299,203.1794 C 125.71385,164.95655 83.931753,126.59292 74.793896,117.92687 L 58.179594,102.17043 86.359155,56.326479 C 101.85791,31.112298 115.43514,8.2593891 116.53077,5.5422203 l 1.99205,-4.94030528 47.11937,0.0129323 47.11935,0.0147798 118.86544,108.07110288 118.8654,108.07109 13.53919,0 13.53917,0 86.96486,-79.89528 86.96493,-79.89528 3.31322,-0.05801 3.31323,-0.05801 5.10113,9.624016 c 2.80565,5.293209 9.38718,16.464278 14.62563,24.824605 l 9.52449,15.200589 -91.05723,83.2604 -91.05721,83.26039 -43.56755,-0.16461 -43.56752,-0.16461 L 299.88701,164.85023 181.6453,56.994432 l -14.00231,-0.02199 -14.00232,-0.02199 -8.87032,15.299171 -8.87032,15.299152 35.31913,32.853565 c 19.42553,18.0695 64.72399,59.75069 100.66324,92.6249 l 65.34411,59.77131 -46.67437,-0.0615 -46.67436,-0.0615 -76.23479,-69.49616 z M 379.73592,79.65223 294.66875,2.0825157 340.51657,1.2605756 386.3644,0.43863548 410.02563,21.989206 l 23.66122,21.550589 0.91422,-21.468949 0.91423,-21.46893098 94.58455,0 94.58461,0 2.12446,3.27133648 2.12448,3.2713548 -25.98722,24.8603707 -25.98723,24.860354 -39.7419,0 -39.74191,0 0,36.610199 0,36.61018 -15.42482,13.73078 c -8.48366,7.55193 -15.83487,13.65758 -16.33602,13.56811 -0.50116,-0.0894 -39.19143,-35.06902 -85.97838,-77.73237 z"
       id="path3405"
       inkscape:connector-curvature="0" />
  </g>
</svg>
