<?xml version="1.0" encoding="UTF-8"?>
<svg width="482px" height="207px" viewBox="0 0 482 207" version="1.1" xmlns="http://www.w3.org/2000/svg" xmlns:xlink="http://www.w3.org/1999/xlink">
    <!-- Generator: Sketch 50.2 (55047) - http://www.bohemiancoding.com/sketch -->
    <title>meetjs-logo-white-katowice</title>
    <desc>Created with Sketch.</desc>
    <defs></defs>
    <g id="meetjs-logo-white-katowice" stroke="none" stroke-width="1" fill="none" fill-rule="evenodd">
        <g id="Layer_1">
            <g>
                <g id="logo">
                    <rect id="safearea" x="0" y="0" width="481.842437" height="206.353579"></rect>
                    <g id="meet" transform="translate(58.011887, 43.578947)" fill="#FFFFFF">
                        <path d="M96.8440416,65.8841053 L69.0269837,65.8841053 L69.0269837,52.7232632 L75.25789,52.7232632 L75.25789,39.4607368 C75.25789,35.4611579 74.3244477,32.4082105 72.4575632,30.3018947 C70.5906786,28.1955789 67.9646261,27.1424211 64.5794056,27.1424211 C61.050946,27.1424211 57.9474294,28.9678947 55.2688559,32.6188421 C55.6022802,34.4591973 55.7748372,36.3258123 55.7845171,38.1969474 L55.7845171,52.7232632 L62.846211,52.7232632 L62.846211,65.8841053 L35.1294205,65.8841053 L35.1294205,52.7232632 L41.3603269,52.7232632 L41.3603269,39.4607368 C41.3603269,35.4611579 40.4268846,32.4082105 38.56,30.3018947 C36.6931154,28.1955789 34.0670629,27.1424211 30.6818425,27.1424211 C27.5687766,27.1424211 24.6275978,28.9678947 21.8583061,32.6188421 L21.8583061,52.7305263 L28.92,52.7305263 L28.92,65.8913684 L0.272154532,65.8913684 L0.272154532,52.7232632 L7.4341159,52.7232632 L7.4341159,28.6313684 L0.272154532,28.6313684 L0.272154532,15.456 L21.8081724,15.456 L21.8081724,18.5065263 C25.0597028,15.4172632 29.1420208,13.8726316 34.0551263,13.8726316 C40.1429327,13.7146548 45.9772996,16.3449387 49.9403566,21.0341053 C52.3055876,18.7273609 55.061707,16.8721873 58.0763447,15.5576842 C61.2435991,14.3578117 64.6085554,13.7857737 67.9884993,13.8726316 C73.8630456,13.7478574 79.5037805,16.2055267 83.4583358,20.6128421 C87.6122734,25.1063158 89.6892422,30.9676842 89.6892422,38.1969474 L89.6892422,52.7232632 L96.8512036,52.7232632 L96.8512036,65.8841053 L96.8440416,65.8841053 Z" id="m"></path>
                        <path d="M151.038603,46.0629474 L114.91367,46.0629474 C116.64209,51.9606316 120.79364,54.9094737 127.368321,54.9094737 C131.312174,54.9094737 134.081466,53.6456842 135.676196,51.1181053 L150.716315,51.1181053 C149.327211,55.9600381 146.279598,60.1401754 142.121961,62.9062105 C137.634362,65.9728025 132.319921,67.5536306 126.909955,67.4311579 C119.022249,67.4311579 112.602744,64.8866316 107.651441,59.7975789 C102.700139,54.7085263 100.226875,48.3387368 100.231649,40.6882105 C100.231649,33.1103158 102.671491,26.8276842 107.551174,21.8403158 C112.430857,16.8529474 118.676087,14.3616842 126.286865,14.3665263 C133.620713,14.3665263 139.624824,16.7004211 144.299198,21.3682105 C148.973571,26.036 151.30837,32.1249474 151.303596,39.6350526 C151.358916,41.7812977 151.270381,43.9288748 151.038603,46.0629474 L151.038603,46.0629474 Z M119.067608,28.2682105 C117.014022,30.0993262 115.56409,32.5255178 114.91367,35.2190526 L137.753165,35.2190526 C137.318345,32.56399 136.043881,30.1243527 134.122051,28.2682105 C132.094654,26.4557621 129.452204,25.5130187 126.752392,25.6389474 C123.95513,25.5332214 121.218084,26.4800188 119.067608,28.2972632 L119.067608,28.2682105 Z" id="e1"></path>
                        <path d="M206.995007,46.0629474 L170.870074,46.0629474 C172.598494,51.9606316 176.750045,54.9094737 183.324725,54.9094737 C187.268579,54.9094737 190.03787,53.6456842 191.6326,51.1181053 L206.672719,51.1181053 C205.283615,55.9600381 202.236003,60.1401754 198.078366,62.9062105 C193.590766,65.9728025 188.276325,67.5536306 182.86636,67.4311579 C174.978653,67.4311579 168.559148,64.8866316 163.607845,59.7975789 C158.656543,54.7085263 156.19999,48.3508421 156.238187,40.7245263 C156.238187,33.1466316 158.678029,26.864 163.557712,21.8766316 C168.437395,16.8892632 174.682625,14.398 182.293403,14.4028421 C189.627251,14.4028421 195.631362,16.7367368 200.305736,21.4045263 C204.980109,26.0723158 207.312521,32.1612632 207.302972,39.6713684 C207.342409,41.8064976 207.23952,43.9418891 206.995007,46.0629474 L206.995007,46.0629474 Z M175.024012,28.2682105 C172.970426,30.0993262 171.520494,32.5255178 170.870074,35.2190526 L193.695245,35.2190526 C193.260425,32.56399 191.985961,30.1243527 190.064131,28.2682105 C188.037122,26.4550923 185.394396,25.5122504 182.694473,25.6389474 C179.902087,25.5368374 177.170768,26.4834181 175.024012,28.2972632 L175.024012,28.2682105 Z" id="e2"></path>
                        <path d="M255.066092,65.1432632 C250.707737,66.5947011 246.159534,67.3756869 241.572957,67.4602105 C235.552135,67.4602105 230.724973,65.4773684 227.091471,61.5116842 C223.457969,57.546 221.636444,52.2995789 221.626895,45.7724211 L221.626895,28.6313684 L210.310996,28.6313684 L210.310996,15.456 L221.626895,15.456 L221.626895,0.399473684 L236.058247,0.399473684 L236.058247,15.456 L252.981961,15.456 L252.981961,28.6313684 L236.065409,28.6313684 L236.065409,45.6852632 C236.065409,51.2294737 238.930193,54.0015789 244.659762,54.0015789 C247.551309,53.8905502 250.418461,53.4197622 253.19682,52.5997895 L255.066092,65.1432632 Z" id="t"></path>
                    </g>
                    <rect id="dot" fill="#BDDB59" x="320.433314" y="94.7043158" width="14.5531055" height="14.7587368"></rect>
                    <g id="js" transform="translate(340.193165, 37.042105)" fill="#249FAB">
                        <path d="M25.1026746,74.8395789 C25.1026746,81.7202105 23.8230708,86.9327368 21.2638633,90.4771579 C18.7046558,94.0215789 13.9300149,97.0575789 6.93994056,99.5851579 L1.43955423,87.8987368 C5.17809807,85.9328421 7.65136206,84.1969474 8.85934621,82.6910526 C10.0673304,81.1851579 10.6737098,78.9577895 10.6784844,76.0089474 L10.6784844,35.1682105 L0.709034175,35.1682105 L0.709034175,21.9928421 L25.1026746,21.9928421 L25.1026746,74.8395789 L25.1026746,74.8395789 Z M25.1026746,0.392210526 L10.5495691,0.392210526 L10.5495691,15.1509474 L25.1026746,15.1509474 L25.1026746,0.392210526 L25.1026746,0.392210526 Z" id="j"></path>
                        <path d="M67.5659435,41.8866316 C71.7699979,42.5288135 75.7191822,44.3303031 78.98211,47.0943158 C81.9567112,49.7284211 83.4440119,53.3261053 83.4440119,57.8873684 C83.4440119,62.8021053 81.6964933,66.7145263 78.2014562,69.6246316 C74.706419,72.5347368 70.0177216,73.9873684 64.135364,73.9825263 C58.1171997,74.0976595 52.2336636,72.1701238 47.4193462,68.5061053 L47.4193462,72.3991579 L34.4490342,72.3991579 L34.4490342,54.5245263 L47.1113819,54.5245263 C49.2212577,56.8831354 51.6098935,58.968876 54.2232095,60.7345263 C56.5628283,62.1300886 59.2452904,62.822774 61.9581278,62.7318947 C66.3173749,62.7318947 68.4969985,61.364 68.4969985,58.6282105 C68.4969985,56.2410526 66.6635364,54.6964211 62.9966122,53.9943158 L54.7961664,52.5997895 C42.3534522,50.3724211 36.1320951,44.9081053 36.1320951,36.2068421 C36.1320951,31.1516842 38.0419515,27.2562105 41.8616642,24.5204211 C45.6813769,21.7846316 50.5777712,20.4167368 56.550847,20.4167368 C61.7408816,20.4167368 65.9282417,21.7507368 69.1129272,24.4187368 L69.1129272,21.7894737 L82.0904012,21.7894737 L82.0904012,37.7684211 L69.327786,37.7684211 C67.4609014,36.0155789 66.1454879,34.8389474 65.3815453,34.2385263 C64.3468015,33.4832519 63.2321891,32.8474235 62.0583952,32.3428421 C60.5909462,31.6723941 58.9982596,31.3305285 57.3887964,31.3405263 C53.3733234,31.3405263 51.3655869,32.6745263 51.3655869,35.3425263 C51.3655869,37.7974737 53.5810203,39.4462105 58.0118871,40.2887368 L67.5659435,41.8866316 Z" id="s"></path>
                    </g>
                    <g id="katowice" transform="translate(83.078752, 124.200000)" fill="#249FAB">
                        <polygon id="Shape" points="33.4678455 37.8846316 20.9845468 37.8846316 20.9845468 33.2797895 16.2433284 27.0044211 10.9864487 31.3623158 14.5674294 31.3623158 14.5674294 37.8991579 0.250668648 37.8991579 0.250668648 31.3623158 3.83164933 31.3623158 3.83164933 7.28494737 0.250668648 7.28494737 0.250668648 0.748105263 10.9936107 0.748105263 10.9936107 23.7577895 17.5109955 18.4629474 17.5109955 12.8122105 31.2261516 12.8122105 31.2261516 19.3490526 25.6756315 19.3490526 21.6004755 22.6465263 28.1536701 31.3623158 33.4678455 31.3623158 33.4678455 37.8991579"></polygon>
                        <path d="M60.8981575,31.3477895 L64.4791382,31.3477895 L64.4791382,37.8846316 L53.7361961,37.8846316 L53.7361961,36.432 C51.6413606,37.7768136 49.2034862,38.4687604 46.724636,38.4221053 C43.4211476,38.4660181 40.2539995,37.0883589 38.008529,34.6307368 C33.1940668,29.4251877 33.1940668,21.3224965 38.008529,16.1169474 C40.2539995,13.6593253 43.4211476,12.2816661 46.724636,12.3255789 C49.2034862,12.2789238 51.6413606,12.9708706 53.7361961,14.3156842 L53.7361961,12.8630526 L64.4791382,12.8630526 L64.4791382,19.3998947 L60.8981575,19.3998947 L60.8981575,31.3768421 L60.8981575,31.3477895 Z M53.7361961,29.8297895 L53.7361961,20.8815789 C52.1677296,19.3533996 50.0813452,18.4930173 47.9063596,18.4774737 C46.1686499,18.4382419 44.5041006,19.1864239 43.3656761,20.5184211 C40.9590291,23.2814744 40.9590291,27.429894 43.3656761,30.1929474 C44.5041006,31.5249445 46.1686499,32.2731265 47.9063596,32.2338947 C50.0787185,32.2157612 52.1619574,31.3556194 53.7290342,29.8297895 L53.7361961,29.8297895 Z" id="Shape"></path>
                        <path d="M87.9202377,37.5142105 C85.7547233,38.2339618 83.4951336,38.6207777 81.2166419,38.6617895 C78.5206418,38.7701058 75.9098439,37.6924969 74.0546805,35.7056842 C72.2498663,33.7349474 71.3474591,31.1298947 71.3474591,27.8905263 L71.3474591,19.3708421 L65.7253195,19.3708421 L65.7253195,12.834 L71.3474591,12.834 L71.3474591,5.35294737 L78.5094205,5.35294737 L78.5094205,12.834 L86.9175632,12.834 L86.9175632,19.3708421 L78.4807727,19.3708421 L78.4807727,27.8469474 C78.4807727,30.6021053 79.9131649,31.9796842 82.7779495,31.9796842 C84.2086513,31.9276998 85.6277099,31.6984179 87.0035067,31.2969474 L87.9202377,37.5142105 Z" id="Shape"></path>
                        <path d="M111.91997,16.0225263 C114.458446,18.4446517 115.855331,21.851417 115.758782,25.3847368 C115.853114,28.9558397 114.459535,32.4020034 111.91997,34.8776842 C106.507294,39.9346238 98.1743999,39.9346238 92.7617236,34.8776842 C90.2078427,32.409695 88.8028695,28.9610907 88.8942645,25.3847368 C88.7875549,21.8539094 90.1771629,18.4458157 92.7115899,16.0225263 C98.178356,11.0571461 106.453204,11.0571461 111.91997,16.0225263 L111.91997,16.0225263 Z M106.906597,30.222 C108.126258,28.9200488 108.785801,27.1799616 108.740059,25.3847368 C108.790115,23.6330534 108.139104,21.9353704 106.935245,20.6782105 C104.375435,18.1673264 100.313421,18.1673264 97.7536107,20.6782105 C96.549752,21.9353704 95.8987406,23.6330534 95.9487964,25.3847368 C95.9008228,27.1749267 96.5490936,28.9124219 97.7536107,30.222 C98.9556566,31.4805489 100.609542,32.1910129 102.337266,32.1910129 C104.06499,32.1910129 105.718875,31.4805489 106.920921,30.222 L106.906597,30.222 Z" id="Shape"></path>
                        <polygon id="Shape" points="155.521991 19.3708421 148.460297 37.8846316 142.172095 37.8846316 137.688707 24.1282105 133.148024 37.8846316 126.802526 37.8846316 119.790966 19.3708421 117.312927 19.3708421 117.312927 12.834 129.896493 12.834 129.896493 19.3708421 127.031709 19.3708421 130.075542 28.3117895 135.232155 12.834 140.030669 12.834 145.187281 28.2609474 148.180981 19.3708421 145.394978 19.3708421 145.394978 12.834 157.978544 12.834 157.978544 19.3708421"></polygon>
                        <path d="M174.293492,37.8846316 L160.034027,37.8846316 L160.034027,31.3477895 L163.615007,31.3477895 L163.615007,19.3708421 L160.034027,19.3708421 L160.034027,12.834 L170.776969,12.834 L170.776969,31.3477895 L174.28633,31.3477895 L174.28633,37.8846316 L174.293492,37.8846316 Z M163.801218,8.10568421 C162.908425,7.26252616 162.411101,6.07426535 162.433284,4.83726316 C162.404059,3.58409623 162.901371,2.37738105 163.801218,1.518 C165.672006,-0.261393635 168.583893,-0.261393635 170.454681,1.518 C171.354528,2.37738105 171.85184,3.58409623 171.822615,4.83726316 C171.844798,6.07426535 171.347474,7.26252616 170.454681,8.10568421 C168.581015,9.88758414 165.663939,9.88440318 163.794056,8.09842105 L163.801218,8.10568421 Z" id="Shape"></path>
                        <path d="M202.397028,28.0503158 C202.109107,30.9778844 200.712399,33.6779789 198.500921,35.5822105 C196.117437,37.5705141 193.098106,38.6040986 190.013997,38.4874737 C186.372272,38.6178594 182.825669,37.2928909 180.137652,34.7977895 C177.559479,32.3870556 176.138276,28.9613563 176.241545,25.4065263 C176.138118,21.9007429 177.495192,18.5128514 179.980089,16.0733684 C182.494292,13.5938789 185.892676,12.2546306 189.398068,12.3618947 C191.622397,12.295442 193.809018,12.9548415 195.636137,14.2430526 L195.636137,12.834 L202.239465,12.834 L202.239465,22.7191579 L195.435602,22.7191579 C195.158676,21.5454507 194.47168,20.5132986 193.501872,19.8138947 C192.468753,19.0814728 191.231101,18.7046764 189.971025,18.7389474 C188.207576,18.7009885 186.504411,19.390308 185.251293,20.6491579 C184.005572,21.8952731 183.304289,23.5957285 183.304289,25.3702105 C183.304289,27.1446925 184.005572,28.845148 185.251293,30.0912632 C186.504411,31.3501131 188.207576,32.0394326 189.971025,32.0014737 C191.190157,32.0282932 192.38461,31.650868 193.372957,30.9265263 C194.318957,30.2347719 194.99366,29.2264234 195.278039,28.0793684 L202.397028,28.0793684 L202.397028,28.0503158 Z" id="Shape"></path>
                        <path d="M230.550698,28.0503158 L212.602823,28.0503158 C213.462259,30.9555789 215.524903,32.4082105 218.790758,32.4082105 C220.748361,32.4082105 222.123457,31.7811579 222.916048,30.5270526 L230.393135,30.5270526 C229.707165,32.9296412 228.198735,35.0053541 226.13893,36.3811579 C223.910474,37.9059655 221.270668,38.6926031 218.583061,38.6327368 C214.663081,38.6327368 211.473621,37.3689474 209.014681,34.8413684 C206.558179,32.3208463 205.225476,28.890838 205.32627,25.3484211 C205.210584,21.837497 206.538603,18.4356772 208.992727,15.9565185 C211.446851,13.4773599 214.806403,12.1437901 218.267935,12.2747368 C221.593221,12.145975 224.825569,13.403118 227.213224,15.7537895 C229.5337,18.0731579 230.693938,21.0970526 230.693938,24.8254737 C230.718832,25.9024767 230.670974,26.9799444 230.550698,28.0503158 L230.550698,28.0503158 Z M214.665468,19.1892632 C213.645981,20.0980996 212.92603,21.3022957 212.602823,22.6392632 L223.94737,22.6392632 C223.730237,21.3213314 223.096853,20.110584 222.142556,19.1892632 C221.136222,18.2882272 219.823804,17.8193954 218.482793,17.8818947 C217.094979,17.8258287 215.735615,18.2913874 214.665468,19.1892632 L214.665468,19.1892632 Z" id="Shape"></path>
                    </g>
                </g>
            </g>
        </g>
    </g>
</svg>